<svg width="791" height="255" viewBox="0 0 791 255" fill="none" xmlns="http://www.w3.org/2000/svg">
<path d="M97.8048 24.9554C101.61 24.9819 105.412 25.0083 109.043 25.0083H145.978C149.608 25.0083 153.411 24.9819 157.216 24.9554C167.459 24.8841 177.718 24.8127 184.661 25.2573C209.937 26.876 227.369 42.1909 229.61 68.2139C230.141 77.565 230.128 88.83 230.113 102.115V102.119C230.111 104.399 230.108 106.739 230.108 109.138V146.074C230.108 148.473 230.111 150.813 230.113 153.093C230.128 166.38 230.141 177.646 229.61 186.998C227.369 213.021 209.937 228.336 184.661 229.955C177.718 230.399 167.459 230.328 157.216 230.257C153.411 230.23 149.608 230.204 145.978 230.204H109.043C105.412 230.204 101.61 230.23 97.8048 230.257C87.5612 230.328 77.3027 230.399 70.3593 229.955C45.0835 228.336 27.6518 213.021 25.4106 186.998C24.8792 177.647 24.8921 166.382 24.9072 153.097V153.093C24.9098 150.813 24.9125 148.473 24.9125 146.074V109.138C24.9125 106.739 24.9098 104.399 24.9072 102.119V102.115C24.8921 88.83 24.8792 77.565 25.4106 68.2139C27.6518 42.1909 45.0835 26.876 70.3593 25.2573C77.3027 24.8127 87.5612 24.8841 97.8048 24.9554Z" fill="url(#paint0_linear_16001_10)"/>
<g filter="url(#filter0_dddddd_16001_10)">
<path d="M58.2715 98.1152C58.2715 92.889 62.5082 88.6523 67.7344 88.6523H133.975C147.178 88.6523 157.881 99.3555 157.881 112.559V156.636C157.881 161.862 153.644 166.099 148.418 166.099H82.1777C68.9747 166.099 58.2715 155.395 58.2715 142.192V98.1152Z" fill="url(#paint1_linear_16001_10)"/>
<path d="M59.3921 98.1152C59.3921 93.5079 63.1271 89.7729 67.7344 89.7729H133.975C146.559 89.7729 156.76 99.9744 156.76 112.559V156.636C156.76 161.243 153.025 164.978 148.418 164.978H82.1777C69.5936 164.978 59.3921 154.777 59.3921 142.192V98.1152Z" stroke="url(#paint2_linear_16001_10)" stroke-width="2.24121"/>
</g>
<g filter="url(#filter1_dddddd_16001_10)">
<path d="M163.857 116.072C163.857 112.851 165.243 109.785 167.662 107.658L186.64 90.9628C190.662 87.4248 196.978 90.2806 196.978 95.6371V159.304C196.978 164.61 190.765 167.484 186.721 164.048L169.3 149.247C165.847 146.313 163.857 142.011 163.857 137.481V116.072Z" fill="url(#paint3_linear_16001_10)"/>
<path d="M164.978 116.072C164.978 113.173 166.225 110.414 168.402 108.499L187.38 91.8042C190.678 88.903 195.857 91.2447 195.857 95.6371V159.304C195.857 163.655 190.762 166.011 187.447 163.194L170.026 148.393C166.824 145.672 164.978 141.683 164.978 137.481V116.072Z" stroke="url(#paint4_linear_16001_10)" stroke-width="2.24121"/>
</g>
<path d="M291.493 73.8295L318.451 162.12H319.452L346.41 73.8295H379.018L338.346 194.375H299.557L258.885 73.8295H291.493ZM498.651 134.102C498.651 147.365 496.101 158.608 491 167.829C485.898 177.051 478.992 184.055 470.281 188.842C461.609 193.629 451.877 196.023 441.086 196.023C430.256 196.023 420.505 193.61 411.833 188.783C403.161 183.957 396.274 176.952 391.173 167.77C386.111 158.549 383.58 147.326 383.58 134.102C383.58 120.839 386.111 109.597 391.173 100.375C396.274 91.154 403.161 84.1497 411.833 79.3624C420.505 74.5751 430.256 72.1815 441.086 72.1815C451.877 72.1815 461.609 74.5751 470.281 79.3624C478.992 84.1497 485.898 91.154 491 100.375C496.101 109.597 498.651 120.839 498.651 134.102ZM468.868 134.102C468.868 126.254 467.75 119.623 465.513 114.208C463.316 108.792 460.137 104.692 455.978 101.906C451.858 99.1198 446.894 97.7267 441.086 97.7267C435.318 97.7267 430.354 99.1198 426.195 101.906C422.035 104.692 418.837 108.792 416.6 114.208C414.403 119.623 413.304 126.254 413.304 134.102C413.304 141.95 414.403 148.582 416.6 153.997C418.837 159.412 422.035 163.513 426.195 166.299C430.354 169.085 435.318 170.478 441.086 170.478C446.894 170.478 451.858 169.085 455.978 166.299C460.137 163.513 463.316 159.412 465.513 153.997C467.75 148.582 468.868 141.95 468.868 134.102ZM629.438 134.102C629.438 147.365 626.888 158.608 621.787 167.829C616.685 177.051 609.779 184.055 601.068 188.842C592.396 193.629 582.664 196.023 571.873 196.023C561.043 196.023 551.292 193.61 542.62 188.783C533.948 183.957 527.061 176.952 521.96 167.77C516.898 158.549 514.367 147.326 514.367 134.102C514.367 120.839 516.898 109.597 521.96 100.375C527.061 91.154 533.948 84.1497 542.62 79.3624C551.292 74.5751 561.043 72.1815 571.873 72.1815C582.664 72.1815 592.396 74.5751 601.068 79.3624C609.779 84.1497 616.685 91.154 621.787 100.375C626.888 109.597 629.438 120.839 629.438 134.102ZM599.655 134.102C599.655 126.254 598.537 119.623 596.3 114.208C594.103 108.792 590.924 104.692 586.765 101.906C582.645 99.1198 577.681 97.7267 571.873 97.7267C566.105 97.7267 561.141 99.1198 556.982 101.906C552.822 104.692 549.624 108.792 547.387 114.208C545.19 119.623 544.091 126.254 544.091 134.102C544.091 141.95 545.19 148.582 547.387 153.997C549.624 159.412 552.822 163.513 556.982 166.299C561.141 169.085 566.105 170.478 571.873 170.478C577.681 170.478 582.645 169.085 586.765 166.299C590.924 163.513 594.103 159.412 596.3 153.997C598.537 148.582 599.655 141.95 599.655 134.102ZM646.449 73.8295H682.53L713.137 148.464H714.55L745.157 73.8295H781.239V194.375H752.868V120.329H751.867L722.908 193.61H704.779L675.82 119.917H674.82V194.375H646.449V73.8295Z" fill="white"/>
<defs>
<filter id="filter0_dddddd_16001_10" x="40.3418" y="81.9287" width="135.469" height="113.306" filterUnits="userSpaceOnUse" color-interpolation-filters="sRGB">
<feFlood flood-opacity="0" result="BackgroundImageFix"/>
<feColorMatrix in="SourceAlpha" type="matrix" values="0 0 0 0 0 0 0 0 0 0 0 0 0 0 0 0 0 0 127 0" result="hardAlpha"/>
<feOffset dy="0.615013"/>
<feGaussianBlur stdDeviation="0.226553"/>
<feColorMatrix type="matrix" values="0 0 0 0 0.0509804 0 0 0 0 0.121569 0 0 0 0 0.396078 0 0 0 0.189957 0"/>
<feBlend mode="multiply" in2="BackgroundImageFix" result="effect1_dropShadow_16001_10"/>
<feColorMatrix in="SourceAlpha" type="matrix" values="0 0 0 0 0 0 0 0 0 0 0 0 0 0 0 0 0 0 127 0" result="hardAlpha"/>
<feOffset dy="1.20664"/>
<feGaussianBlur stdDeviation="0.503869"/>
<feColorMatrix type="matrix" values="0 0 0 0 0.0509804 0 0 0 0 0.121569 0 0 0 0 0.396078 0 0 0 0.368551 0"/>
<feBlend mode="multiply" in2="effect1_dropShadow_16001_10" result="effect2_dropShadow_16001_10"/>
<feColorMatrix in="SourceAlpha" type="matrix" values="0 0 0 0 0 0 0 0 0 0 0 0 0 0 0 0 0 0 127 0" result="hardAlpha"/>
<feOffset dy="1.8557"/>
<feGaussianBlur stdDeviation="0.862946"/>
<feColorMatrix type="matrix" values="0 0 0 0 0.0509804 0 0 0 0 0.121569 0 0 0 0 0.396078 0 0 0 0.3 0"/>
<feBlend mode="multiply" in2="effect2_dropShadow_16001_10" result="effect3_dropShadow_16001_10"/>
<feColorMatrix in="SourceAlpha" type="matrix" values="0 0 0 0 0 0 0 0 0 0 0 0 0 0 0 0 0 0 127 0" result="hardAlpha"/>
<feOffset dy="2.72289"/>
<feGaussianBlur stdDeviation="2.7405"/>
<feColorMatrix type="matrix" values="0 0 0 0 0.0509804 0 0 0 0 0.121569 0 0 0 0 0.396078 0 0 0 0.3 0"/>
<feBlend mode="multiply" in2="effect3_dropShadow_16001_10" result="effect4_dropShadow_16001_10"/>
<feColorMatrix in="SourceAlpha" type="matrix" values="0 0 0 0 0 0 0 0 0 0 0 0 0 0 0 0 0 0 127 0" result="hardAlpha"/>
<feOffset dy="4.23693"/>
<feGaussianBlur stdDeviation="5.09502"/>
<feColorMatrix type="matrix" values="0 0 0 0 0.0509804 0 0 0 0 0.121569 0 0 0 0 0.396078 0 0 0 0.29 0"/>
<feBlend mode="overlay" in2="effect4_dropShadow_16001_10" result="effect5_dropShadow_16001_10"/>
<feColorMatrix in="SourceAlpha" type="matrix" values="0 0 0 0 0 0 0 0 0 0 0 0 0 0 0 0 0 0 127 0" result="hardAlpha"/>
<feOffset dy="11.2061"/>
<feGaussianBlur stdDeviation="8.96484"/>
<feColorMatrix type="matrix" values="0 0 0 0 0.0509804 0 0 0 0 0.121569 0 0 0 0 0.396078 0 0 0 0.45 0"/>
<feBlend mode="multiply" in2="effect5_dropShadow_16001_10" result="effect6_dropShadow_16001_10"/>
<feBlend mode="normal" in="SourceGraphic" in2="effect6_dropShadow_16001_10" result="shape"/>
</filter>
<filter id="filter1_dddddd_16001_10" x="145.928" y="82.6758" width="68.9795" height="112.001" filterUnits="userSpaceOnUse" color-interpolation-filters="sRGB">
<feFlood flood-opacity="0" result="BackgroundImageFix"/>
<feColorMatrix in="SourceAlpha" type="matrix" values="0 0 0 0 0 0 0 0 0 0 0 0 0 0 0 0 0 0 127 0" result="hardAlpha"/>
<feOffset dy="0.615013"/>
<feGaussianBlur stdDeviation="0.226553"/>
<feColorMatrix type="matrix" values="0 0 0 0 0.0509804 0 0 0 0 0.121569 0 0 0 0 0.396078 0 0 0 0.189957 0"/>
<feBlend mode="multiply" in2="BackgroundImageFix" result="effect1_dropShadow_16001_10"/>
<feColorMatrix in="SourceAlpha" type="matrix" values="0 0 0 0 0 0 0 0 0 0 0 0 0 0 0 0 0 0 127 0" result="hardAlpha"/>
<feOffset dy="1.20664"/>
<feGaussianBlur stdDeviation="0.503869"/>
<feColorMatrix type="matrix" values="0 0 0 0 0.0509804 0 0 0 0 0.121569 0 0 0 0 0.396078 0 0 0 0.368551 0"/>
<feBlend mode="multiply" in2="effect1_dropShadow_16001_10" result="effect2_dropShadow_16001_10"/>
<feColorMatrix in="SourceAlpha" type="matrix" values="0 0 0 0 0 0 0 0 0 0 0 0 0 0 0 0 0 0 127 0" result="hardAlpha"/>
<feOffset dy="1.8557"/>
<feGaussianBlur stdDeviation="0.862946"/>
<feColorMatrix type="matrix" values="0 0 0 0 0.0509804 0 0 0 0 0.121569 0 0 0 0 0.396078 0 0 0 0.3 0"/>
<feBlend mode="multiply" in2="effect2_dropShadow_16001_10" result="effect3_dropShadow_16001_10"/>
<feColorMatrix in="SourceAlpha" type="matrix" values="0 0 0 0 0 0 0 0 0 0 0 0 0 0 0 0 0 0 127 0" result="hardAlpha"/>
<feOffset dy="2.72289"/>
<feGaussianBlur stdDeviation="2.7405"/>
<feColorMatrix type="matrix" values="0 0 0 0 0.0509804 0 0 0 0 0.121569 0 0 0 0 0.396078 0 0 0 0.3 0"/>
<feBlend mode="multiply" in2="effect3_dropShadow_16001_10" result="effect4_dropShadow_16001_10"/>
<feColorMatrix in="SourceAlpha" type="matrix" values="0 0 0 0 0 0 0 0 0 0 0 0 0 0 0 0 0 0 127 0" result="hardAlpha"/>
<feOffset dy="4.23693"/>
<feGaussianBlur stdDeviation="5.09502"/>
<feColorMatrix type="matrix" values="0 0 0 0 0.0509804 0 0 0 0 0.121569 0 0 0 0 0.396078 0 0 0 0.29 0"/>
<feBlend mode="overlay" in2="effect4_dropShadow_16001_10" result="effect5_dropShadow_16001_10"/>
<feColorMatrix in="SourceAlpha" type="matrix" values="0 0 0 0 0 0 0 0 0 0 0 0 0 0 0 0 0 0 127 0" result="hardAlpha"/>
<feOffset dy="11.2061"/>
<feGaussianBlur stdDeviation="8.96484"/>
<feColorMatrix type="matrix" values="0 0 0 0 0.0509804 0 0 0 0 0.121569 0 0 0 0 0.396078 0 0 0 0.45 0"/>
<feBlend mode="multiply" in2="effect5_dropShadow_16001_10" result="effect6_dropShadow_16001_10"/>
<feBlend mode="normal" in="SourceGraphic" in2="effect6_dropShadow_16001_10" result="shape"/>
</filter>
<linearGradient id="paint0_linear_16001_10" x1="127.51" y1="24.9023" x2="127.51" y2="230.31" gradientUnits="userSpaceOnUse">
<stop stop-color="#A4C1FF"/>
<stop offset="1" stop-color="#0E78F9"/>
</linearGradient>
<linearGradient id="paint1_linear_16001_10" x1="108.076" y1="88.6523" x2="108.076" y2="166.099" gradientUnits="userSpaceOnUse">
<stop stop-color="white"/>
<stop offset="1" stop-color="#C5D4F7"/>
</linearGradient>
<linearGradient id="paint2_linear_16001_10" x1="108.076" y1="88.6523" x2="108.076" y2="166.099" gradientUnits="userSpaceOnUse">
<stop stop-color="white"/>
<stop offset="1" stop-color="#637ACA"/>
</linearGradient>
<linearGradient id="paint3_linear_16001_10" x1="180.417" y1="89.3994" x2="180.417" y2="165.541" gradientUnits="userSpaceOnUse">
<stop stop-color="white"/>
<stop offset="1" stop-color="#C5D4F7"/>
</linearGradient>
<linearGradient id="paint4_linear_16001_10" x1="180.417" y1="89.3994" x2="180.417" y2="165.541" gradientUnits="userSpaceOnUse">
<stop stop-color="white"/>
<stop offset="1" stop-color="#637ACA"/>
</linearGradient>
</defs>
</svg>
